<svg xmlns="http://www.w3.org/2000/svg" aria-hidden="true" style="position:absolute;width:0;height:0;overflow:hidden"><defs>
<symbol id="icon-basket" viewBox="0 0 32 32"><path stroke-linecap="round" stroke-linejoin="round" stroke-width="2.667" d="m20 14.667-1.333 12M25.333 14.667 20 5.334M2.667 14.667h26.667M4.667 14.667 6.8 24.534a2.667 2.667 0 0 0 2.667 2.133h13.067a2.666 2.666 0 0 0 2.667-2.133l2.267-9.867M6 20.667h20M6.667 14.667 12 5.334M12 14.667l1.333 12"/></symbol>
<symbol id="icon-instagram" viewBox="0 0 32 32"><path stroke-linecap="round" stroke-linejoin="round" stroke-width="2.667" d="M22.667 2.667H9.334a6.667 6.667 0 0 0-6.667 6.667v13.333a6.667 6.667 0 0 0 6.667 6.667h13.333a6.667 6.667 0 0 0 6.667-6.667V9.334a6.667 6.667 0 0 0-6.667-6.667z"/><path stroke-linecap="round" stroke-linejoin="round" stroke-width="2.667" d="M21.333 15.16a5.329 5.329 0 0 1-2.878 5.546 5.338 5.338 0 0 1-6.169-.992 5.33 5.33 0 0 1-.992-6.169 5.336 5.336 0 0 1 10.04 1.615zM23.333 8.667h.013"/></symbol>
<symbol id="icon-twitter" viewBox="0 0 32 32"><path stroke-linecap="round" stroke-linejoin="round" stroke-width="2.667" d="M30.667 4a14.542 14.542 0 0 1-4.187 2.04 5.975 5.975 0 0 0-6.637-1.661A5.981 5.981 0 0 0 16 10.04v1.333c-2.343.061-4.665-.459-6.759-1.513S4.68 6.297 3.333 4.379c0 0-4.667 12.954 7.333 18.287a15.519 15.519 0 0 1-9.333 2.667C13.333 32 28 25.333 28 10a5.966 5.966 0 0 0-.107-1.107A10.288 10.288 0 0 0 30.666 4z"/></symbol><symbol id="icon-arrow-right" viewBox="0 0 32 32"><path stroke-linecap="round" stroke-linejoin="round" stroke-width="1.333" d="M9.143 16h13.714m0 0-3.429-3.429M22.857 16l-3.429 3.429M16 30.857c8.205 0 14.857-6.652 14.857-14.857S24.205 1.143 16 1.143C7.795 1.143 1.143 7.795 1.143 16S7.795 30.857 16 30.857z"/></symbol>
<symbol id="icon-flag" viewBox="0 0 32 32"><path fill="gold" d="M31.832 4.558H.243v23.508h31.589V4.558z" style="fill:var(--color1, #ffd700)"/><path fill="#0057b7" d="M.243 4.558h31.589v11.754H.243V4.558z" style="fill:var(--color2, #0057b7)"/></symbol>
<symbol id="icon-mastercard" viewBox="0 0 32 32"><path fill="#ed0006" d="M16 22.834a9.084 9.084 0 0 1-5.935 2.199c-5.054 0-9.15-4.121-9.15-9.204s4.097-9.204 9.15-9.204A9.08 9.08 0 0 1 16 8.824a9.084 9.084 0 0 1 5.935-2.199c5.054 0 9.15 4.121 9.15 9.204s-4.097 9.204-9.15 9.204A9.082 9.082 0 0 1 16 22.834z" style="fill:var(--color3, #ed0006)"/><path fill="#f9a000" d="M16 22.834c1.967-1.688 3.215-4.2 3.215-7.005S17.967 10.512 16 8.824a9.084 9.084 0 0 1 5.935-2.199c5.054 0 9.15 4.121 9.15 9.204s-4.097 9.204-9.15 9.204A9.08 9.08 0 0 1 16 22.834z" style="fill:var(--color4, #f9a000)"/><path fill="#ff5e00" d="M16 22.834c1.967-1.688 3.215-4.2 3.215-7.005S17.967 10.512 16 8.824c-1.967 1.688-3.215 4.2-3.215 7.005s1.248 5.317 3.215 7.005z" style="fill:var(--color5, #ff5e00)"/></symbol>
<symbol id="icon-chocolate-logo" viewBox="0 0 32 32"><path fill="#fcf1e0" d="M3.944 20.076 14.721 2.652l.64-.674 8.236 5.491.056 3.314 2.01 3.28-8.88 14.077-12.839-8.063z" style="fill:var(--color6, #fcf1e0)"/><path fill="none" stroke="#fd9222" stroke-linecap="round" stroke-linejoin="round" stroke-width="2.667" d="M21.635 23.88 7.45 15.016m3.911-6.417 14.185 8.864M10.63 25.864l11.736-19.25m4.81 8.175c-3.04-1.899-4.234-3.384-2.278-6.592l-9.626-6.015-11.736 19.25 14.186 8.864 9.454-15.507z" style="stroke:var(--color7, #fd9222)"/></symbol>
<symbol id="icon-burger-menu" viewBox="0 0 32 32"><path stroke-linecap="round" stroke-linejoin="round" stroke-width="2.857" d="M2.286 16h27.429M2.286 6.857h27.429M2.286 25.143h27.429"/></symbol>
<symbol id="icon-arrow-down" viewBox="0 0 32 32"><path d="M16.947 17.867a1.334 1.334 0 0 1-1.894 0l-6.107-6.12a1.334 1.334 0 1 0-1.894 1.88l6.12 6.12a4.001 4.001 0 0 0 5.654 0l6.12-6.12a1.337 1.337 0 0 0-.434-2.172 1.331 1.331 0 0 0-1.46.292l-6.107 6.12z"/></symbol>
<symbol id="icon-x-close" viewBox="0 0 32 32"><path stroke-linecap="round" stroke-linejoin="round" stroke-width="2.286" d="M24 8 8 24M8 8l16 16"/></symbol>
<symbol id="icon-spoon" viewBox="0 0 32 32"><path fill="#fd9222" d="M15.451 14.106a5.154 5.154 0 0 1-1.177-3.282c0-4.324 5.181-8.642 10.362-8.642a5.183 5.183 0 0 1 5.181 5.182c0 5.182-4.317 10.364-8.646 10.364a5.15 5.15 0 0 1-3.281-1.177L5.132 29.312a1.73 1.73 0 0 1-2.445-2.445l12.764-12.761z" style="fill:var(--color7, #fd9222)"/></symbol>
<symbol id="icon-money" viewBox="0 0 32 32"><path fill="#fd9222" d="M16 .762C7.619.762.762 7.619.762 16S7.619 31.238 16 31.238 31.238 24.381 31.238 16 24.381.762 16 .762zm0 27.429c-6.705 0-12.19-5.486-12.19-12.19S9.296 3.81 16 3.81c6.705 0 12.19 5.486 12.19 12.191s-5.486 12.19-12.191 12.19z" style="fill:var(--color7, #fd9222)"/><path fill="#fd9222" d="M17.981 14.476h-3.962c-.762 0-1.371-.61-1.371-1.371s.61-1.371 1.371-1.371h5.638c.914 0 1.524-.61 1.524-1.524s-.61-1.524-1.524-1.524h-2.133V7.315c0-.914-.61-1.524-1.524-1.524s-1.524.61-1.524 1.524v1.371h-.457c-2.438 0-4.419 1.981-4.419 4.419s1.981 4.419 4.419 4.419h3.809c.762 0 1.371.61 1.371 1.371s-.61 1.371-1.371 1.371H12.19c-.914 0-1.524.61-1.524 1.524s.61 1.524 1.524 1.524h2.286v1.371c0 .914.61 1.524 1.524 1.524s1.524-.61 1.524-1.524v-1.371h.457c2.438 0 4.419-1.981 4.419-4.419s-1.981-4.419-4.419-4.419z" style="fill:var(--color7, #fd9222)"/></symbol>
<symbol id="icon-chocolate" viewBox="0 0 32 32"><path d="m13.511.472 8.602 8.613.091-.091a.982.982 0 0 1 1.354-.015l.998.998c.349.349.36.88.095 1.25l-.005.008-.163.219 7.04 7.04a1.593 1.593 0 0 1 0 2.263L20.746 31.534a1.593 1.593 0 0 1-2.263 0l-5.082-5.082a.952.952 0 0 1-.7.362.964.964 0 0 1-.736-.282l-2.971-2.971a.98.98 0 0 1-.015-1.354l.007-.008.088-.087L.472 13.51a1.593 1.593 0 0 1 0-2.263L11.249.47a1.593 1.593 0 0 1 2.263 0v.001zm7.522 9.691-2.007-2.006a.676.676 0 0 0-.972 0l-4.091 4.091a.686.686 0 0 0-.204.491.694.694 0 0 0 .204.491l1.999 1.999.697-.697-1.789-1.789 3.669-3.68 1.793 1.799.701-.701zm-5.801 5.797-2.005-2.005a.676.676 0 0 0-.972 0l-4.103 4.103a.676.676 0 0 0 0 .971l2.002 2.002.704-.704-1.794-1.787 3.68-3.669 1.787 1.786.699-.698zM7.797 7.078l4.091 4.091a.667.667 0 0 0 .971-.011l4.091-4.091a.654.654 0 0 0 .206-.48h.011a.703.703 0 0 0-.206-.491L12.87 2.005a.688.688 0 0 0-.982 0L7.797 6.108a.676.676 0 0 0 0 .971zm-5.795 5.794 4.091 4.091a.676.676 0 0 0 .971 0l4.091-4.091a.665.665 0 0 0 .205-.491h.011a.683.683 0 0 0-.206-.491L7.074 7.799a.676.676 0 0 0-.972 0l-4.103 4.103a.676.676 0 0 0 0 .971zm7.924 10.005 2.699 2.701 11.013-14.903-.749-.749L9.926 22.877z" style="fill:var(--color8, #000)"/><path fill="#fd9222" d="m13.511.472 8.602 8.613.091-.091a.982.982 0 0 1 1.354-.015l.998.998c.349.349.36.88.095 1.25l-.005.008-.163.219 7.04 7.04a1.593 1.593 0 0 1 0 2.263L20.746 31.534a1.593 1.593 0 0 1-2.263 0l-5.082-5.082a.952.952 0 0 1-.7.362.964.964 0 0 1-.736-.282l-2.971-2.971a.98.98 0 0 1-.015-1.354l.007-.008.088-.087L.472 13.51a1.593 1.593 0 0 1 0-2.263L11.249.47a1.593 1.593 0 0 1 2.263 0v.001zm7.522 9.691-2.007-2.006a.676.676 0 0 0-.972 0l-4.091 4.091a.686.686 0 0 0-.204.491.694.694 0 0 0 .204.491l1.999 1.999.697-.697-1.789-1.789 3.669-3.68 1.793 1.799.701-.701zm-5.801 5.797-2.005-2.005a.676.676 0 0 0-.972 0l-4.103 4.103a.676.676 0 0 0 0 .971l2.002 2.002.704-.704-1.794-1.787 3.68-3.669 1.787 1.786.699-.698zM7.797 7.078l4.091 4.091a.667.667 0 0 0 .971-.011l4.091-4.091a.654.654 0 0 0 .206-.48h.011a.703.703 0 0 0-.206-.491L12.87 2.005a.688.688 0 0 0-.982 0L7.797 6.108a.676.676 0 0 0 0 .971zm-5.795 5.794 4.091 4.091a.676.676 0 0 0 .971 0l4.091-4.091a.665.665 0 0 0 .205-.491h.011a.683.683 0 0 0-.206-.491L7.074 7.799a.676.676 0 0 0-.972 0l-4.103 4.103a.676.676 0 0 0 0 .971zm7.924 10.005 2.699 2.701 11.013-14.903-.749-.749L9.926 22.877z" style="fill:var(--color7, #fd9222)"/></symbol>
<symbol id="icon-mail" viewBox="0 0 32 32"><path stroke-linecap="round" stroke-linejoin="round" stroke-width="2.667" d="M5.333 5.333h21.333c1.467 0 2.667 1.2 2.667 2.667v16c0 1.467-1.2 2.667-2.667 2.667H5.333A2.675 2.675 0 0 1 2.666 24V8c0-1.467 1.2-2.667 2.667-2.667z"/><path stroke-linecap="round" stroke-linejoin="round" stroke-width="2.667" d="M29.333 8 16 17.333 2.667 8"/></symbol>
<symbol id="icon-user" viewBox="0 0 32 32"><path stroke-linecap="round" stroke-linejoin="round" stroke-width="2.667" d="M26.667 28v-2.667A5.332 5.332 0 0 0 21.334 20H10.667a5.332 5.332 0 0 0-5.333 5.333V28M16 14.667A5.333 5.333 0 1 0 16 4a5.333 5.333 0 0 0 0 10.667z"/></symbol>
<symbol id="icon-error" viewBox="0 0 32 32"><path fill="#e74a3b" d="M14.4 20.8h3.2V24h-3.2v-3.2zm0-12.8h3.2v9.6h-3.2V8zm1.584-8C7.152 0 0 7.168 0 16s7.152 16 15.984 16C24.832 32 32 24.832 32 16S24.832 0 15.984 0zM16 28.8C8.928 28.8 3.2 23.072 3.2 16S8.928 3.2 16 3.2c7.072 0 12.8 5.728 12.8 12.8S23.072 28.8 16 28.8z" style="fill:var(--color1, #e74a3b)"/></symbol>
<symbol id="icon-Vector" viewBox="0 0 40 32"><path stroke-linecap="round" stroke-linejoin="round" stroke-width="2" d="M38.668 16H1.335m0 0 14-14m-14 14 14 14"/></symbol>
<symbol id="icon-Group-1" viewBox="0 0 32 32"><path stroke-width="1.143" d="M16.002 31.237c8.416 0 15.238-6.822 15.238-15.238S24.418.761 16.002.761.764 7.583.764 15.999s6.822 15.238 15.238 15.238z"/><path stroke-linecap="round" stroke-width="1.143" d="M20.571 16h-9.143"/></symbol>
<symbol id="icon-Group" viewBox="0 0 32 32"><path stroke-width="1.143" d="M16.002 31.237c8.416 0 15.238-6.822 15.238-15.238S24.418.761 16.002.761.764 7.583.764 15.999s6.822 15.238 15.238 15.238z"/><path stroke-linecap="round" stroke-width="1.143" d="M20.571 16H16m0 0h-4.571M16 16v-4.571M16 16v4.571"/></symbol>
</defs></svg>